<svg width="121" height="87" viewBox="0 0 121 87" fill="none" xmlns="http://www.w3.org/2000/svg">
<path fill-rule="evenodd" clip-rule="evenodd" d="M107.656 38.7953C107.677 38.2601 107.722 37.741 107.782 37.2551C107.969 35.7943 109.104 35.8889 109.193 35.8979C109.377 35.9176 110.197 36.0452 110.304 37.2041C110.312 37.2732 110.302 37.7692 110.296 37.9602C110.28 38.3673 110.257 38.7668 110.18 39.1634C110.168 39.8456 110.205 40.5516 110.33 41.2227C110.51 42.2131 110.856 43.1414 111.572 43.6778C112.85 44.6421 114.624 44.7469 116.087 45.0817C116.698 45.2213 117.121 45.8773 117.083 46.626C117.041 47.3749 116.552 47.9926 115.927 48.08C114.044 48.3449 111.756 50.1967 110.273 51.7163C109.817 52.1832 109.257 53.3366 108.675 54.0577C108.206 54.6353 107.707 55.0078 107.252 55.1355C107.075 55.185 106.102 55.3399 105.766 54.1199C105.675 53.7774 105.396 52.0001 105.374 51.7982C105.237 50.6405 104.993 49.5968 104.429 48.6402C103.94 47.8108 103.325 47.0716 102.552 46.6276C102.24 46.4486 101.913 46.3055 101.586 46.1588C101.469 46.1324 101.141 46.0557 101.027 45.9984C100.795 45.8836 100.63 45.7193 100.516 45.5594C100.298 45.2568 100.203 44.9085 100.212 44.5212C100.216 44.2655 100.269 43.9659 100.447 43.6432C100.579 43.4144 100.864 43.0767 101.345 42.881C101.848 42.6764 102.905 42.5276 103.095 42.4821C104.415 42.1677 105.727 41.6348 106.802 40.6163C107.337 40.107 107.497 39.5248 107.656 38.7953ZM108.142 43.1529C108.541 44.4268 109.2 45.5245 110.179 46.2604C110.582 46.566 111.028 46.8089 111.495 47.0073C110.442 47.7551 109.451 48.6217 108.654 49.4345C108.396 49.6991 108.104 50.1372 107.791 50.6189C107.577 49.25 107.201 48.006 106.514 46.8405C106.107 46.1532 105.636 45.5172 105.099 44.9756C106.181 44.5622 107.222 43.9769 108.142 43.1529Z" fill="#6D1C8E"/>
<path fill-rule="evenodd" clip-rule="evenodd" d="M77.9761 79.6129C87.5282 80.6455 97.3566 80.8567 106.2 85.5056C106.834 85.8401 107.59 85.4832 107.888 84.7194C108.185 83.9505 107.909 83.0551 107.275 82.7207C98.1834 77.9405 88.0947 77.6478 78.278 76.5892C77.5814 76.514 76.9529 77.1298 76.8704 77.9614C76.7875 78.798 77.284 79.533 77.9761 79.6129Z" fill="#6D1C8E"/>
<path fill-rule="evenodd" clip-rule="evenodd" d="M78.5951 62.7737C81.8188 59.7341 85.2471 57.5344 89.2549 56.6274C89.9444 56.471 90.4135 55.676 90.3048 54.8533C90.192 54.0302 89.5447 53.4895 88.851 53.6456C84.4208 54.6478 80.6251 57.0506 77.0631 60.4095C76.5053 60.9349 76.3961 61.8908 76.8187 62.5432C77.2413 63.1957 78.0373 63.2991 78.5951 62.7737Z" fill="#6D1C8E"/>
<path fill-rule="evenodd" clip-rule="evenodd" d="M73.1833 25.9544C74.982 20.4812 77.9974 16.3261 82.3389 13.4965C82.9592 13.0913 83.2055 12.167 82.8824 11.434C82.5635 10.7009 81.7972 10.4347 81.1769 10.8404C76.2689 14.0377 72.8599 18.7297 70.8272 24.9148C70.5705 25.7016 70.8869 26.5733 71.5373 26.8602C72.1877 27.1472 72.9265 26.7412 73.1833 25.9544Z" fill="#6D1C8E"/>
<path fill-rule="evenodd" clip-rule="evenodd" d="M26.0861 14.4323C25.2064 15.4976 24.4042 16.6533 23.697 17.8927C23.2851 18.6074 22.5262 20.2877 22.5326 21.5483C22.5385 22.493 22.8485 23.2854 23.5533 23.794C24.6785 24.6081 25.6319 24.5944 26.394 24.2161C27.1251 23.8542 27.7445 23.0853 28.176 22.0146C28.9447 20.103 29.1068 17.1344 28.9363 15.3249C29.8587 14.362 30.8538 13.4988 31.8997 12.7412C39.9433 6.92344 50.8132 10.1911 58.5669 20.4498C61.2845 24.0438 62.1453 31.2169 62.2897 38.8861C62.5217 50.9206 60.8011 64.2055 60.4005 68.1057C60.2983 69.1323 60.3428 69.7493 60.3753 69.8743C60.5579 70.5647 60.9646 70.7746 61.2497 70.8631C61.6505 70.9861 61.982 70.9158 62.2601 70.7701C62.631 70.5758 62.9562 70.2094 63.1386 69.6132C63.2303 69.3086 63.2853 68.8797 63.3132 68.4192C63.3262 68.1465 63.295 67.8453 63.3566 67.6541C63.7927 66.3106 64.2936 65.0036 64.7825 63.687C66.427 59.2581 68.4317 55.1447 70.6127 51.0497C77.5607 38.0312 84.3632 24.2287 94.8187 14.7171C95.384 14.2034 95.51 13.2499 95.0966 12.588C94.6832 11.9266 93.8884 11.8065 93.3231 12.3201C82.617 22.0578 75.5978 36.1398 68.4898 49.4693C66.8362 52.5661 65.2873 55.6759 63.9102 58.9159C64.6036 51.4103 65.255 41.2166 64.5253 32.7033C64.0094 26.6327 62.7584 21.4021 60.4699 18.3783C51.8193 6.93348 39.6078 3.6646 30.6349 10.1552C29.7507 10.7935 28.9036 11.4998 28.0936 12.2699C24.3646 2.5561 15.3064 -1.89539 6.67495 1.98353C6.0166 2.28106 5.66388 3.15783 5.89418 3.94091C6.12449 4.72399 6.84676 5.11869 7.50512 4.82116C15.1141 1.40254 23.0978 5.57682 26.0861 14.4323ZM26.4168 18.5054C26.1951 18.848 25.9812 19.1989 25.7751 19.558C25.6283 19.8095 25.4031 20.2499 25.2343 20.7262C25.1789 20.892 25.1243 21.1554 25.0947 21.3166C25.2433 21.4177 25.3658 21.4741 25.4847 21.4159C25.6785 21.3189 25.7804 21.0471 25.8961 20.7601C26.154 20.1207 26.3235 19.3127 26.4168 18.5054Z" fill="#6D1C8E"/>
</svg>
