<svg width="210" height="24" viewBox="0 0 210 24" fill="none" xmlns="http://www.w3.org/2000/svg">
<path fill-rule="evenodd" clip-rule="evenodd" d="M55.9722 14.1335C46.9501 16.3024 36.5335 18.4608 26.5128 18.9997C17.9479 19.4597 9.67498 18.7452 2.90349 15.7053C1.94895 15.2773 0.753607 15.5716 0.237384 16.3637C-0.279626 17.1551 0.0760605 18.1463 1.0306 18.575C8.41747 21.8902 17.4246 22.7574 26.767 22.255C36.9679 21.7069 47.5725 19.5341 56.7756 17.3339C57.8435 19.1276 60.0547 20.7999 63.95 22.0337C69.933 23.9292 78.1021 23.9057 86.7079 22.8376C99.1893 21.2892 112.616 17.5969 121.248 14.9733C121.603 14.8662 122.13 14.696 122.775 14.4715C122.972 14.8317 123.192 15.1866 123.436 15.5351C125.553 18.5717 129.299 21.027 133.115 21.9039C157.321 27.4643 185.572 20.8019 208.574 15.3797C209.612 15.1338 210.218 14.2308 209.927 13.3649C209.628 12.4991 208.542 11.996 207.495 12.242C185.139 17.5127 157.691 24.1628 134.162 18.7596C131.266 18.0941 128.449 16.2071 126.843 13.9025C126.662 13.6455 126.505 13.3825 126.356 13.1157C129.527 11.8127 133.257 9.99615 135.264 8.05176C137.325 6.05844 137.837 3.9307 136.043 1.92106C134.5 0.203083 132.163 0.0569249 129.731 0.94756C127.111 1.90149 124.412 4.13163 123.538 5.17821C121.902 7.13304 121.382 9.25362 121.681 11.3213C120.91 11.5915 120.284 11.7924 119.897 11.9099C111.454 14.4754 98.33 18.0967 86.1256 19.6111C78.2728 20.5859 70.8136 20.7157 65.3539 18.9867C63.0254 18.2487 61.4869 17.3875 60.652 16.3879C62.2998 15.9794 63.8886 15.5775 65.4066 15.1938C68.4087 14.435 74.6593 13.179 79.1251 10.9403C82.6765 9.16033 85.0845 6.73897 84.9444 3.70364C84.8728 2.14421 83.7844 1.10348 82.0524 0.520167C79.4642 -0.350894 74.9882 0.0705989 73.3215 0.364215C68.2663 1.25289 61.5192 4.93159 58.1811 9.0768C56.8488 10.7308 56.0564 12.4612 55.9722 14.1335ZM60.1247 13.1143C61.553 12.7581 62.9333 12.4084 64.2593 12.073C67.0615 11.3644 72.9193 10.2388 77.0893 8.1483C79.2974 7.04169 81.1002 5.71587 81.0129 3.82825C81.0058 3.68144 80.8303 3.63969 80.6753 3.57966C80.4353 3.48766 80.1606 3.42436 79.8679 3.37477C77.8872 3.03939 75.2266 3.36366 74.1375 3.55549C69.896 4.30127 64.2537 7.41035 61.4531 10.8887C60.8613 11.6234 60.3899 12.3718 60.1247 13.1143ZM125.569 9.81932C127.418 9.03047 129.354 8.07653 130.88 7.03844C131.691 6.48709 132.376 5.92011 132.808 5.33157C133.17 4.84482 133.312 4.34629 132.879 3.86476C132.706 3.66967 132.446 3.66578 132.179 3.70232C131.896 3.74147 131.604 3.82497 131.313 3.93262C129.393 4.63339 127.41 6.27047 126.773 7.03844C126.025 7.92907 125.655 8.87127 125.569 9.81932Z" fill="#6D1C8E"/>
</svg>
