<svg width="316" height="316" viewBox="0 0 316 316" fill="none" xmlns="http://www.w3.org/2000/svg">
<circle cx="158" cy="158" r="158" fill="#F6E3FF"/>
<circle cx="148.33" cy="54.8166" r="3.22449" fill="#6D1C8E"/>
<circle cx="206.365" cy="74.1634" r="3.22449" fill="#6D1C8E"/>
<circle cx="116.084" cy="67.7131" r="3.22449" fill="#6D1C8E"/>
<circle cx="174.119" cy="87.0613" r="3.22449" fill="#6D1C8E"/>
<circle cx="209.59" cy="132.203" r="3.22449" fill="#DDBDEC"/>
<circle cx="267.631" cy="151.552" r="3.22449" fill="#6D1C8E"/>
<circle cx="177.349" cy="145.101" r="3.22449" fill="#6D1C8E"/>
<circle cx="235.385" cy="164.449" r="3.22449" fill="#6D1C8E"/>
<circle cx="74.1659" cy="106.41" r="3.22449" fill="#6D1C8E"/>
<circle cx="132.205" cy="125.755" r="3.22449" fill="#DDBDEC"/>
<circle cx="41.9198" cy="119.304" r="3.22449" fill="#6D1C8E"/>
<circle cx="99.9608" cy="138.653" r="3.22449" fill="#6D1C8E"/>
<circle cx="135.428" cy="167.672" r="3.22449" fill="#6D1C8E"/>
<circle cx="196.693" cy="238.613" r="3.22449" fill="#6D1C8E"/>
<circle cx="103.182" cy="196.694" r="3.22449" fill="#6D1C8E"/>
<circle cx="161.224" cy="216.039" r="3.22449" fill="#DDBDEC"/>
<circle cx="48.3651" cy="161.224" r="3.22449" fill="#6D1C8E"/>
<circle cx="74.1659" cy="187.021" r="3.22449" fill="#6D1C8E"/>
<circle cx="32.244" cy="187.021" r="3.22449" fill="#6D1C8E"/>
<circle cx="106.406" cy="32.2455" r="3.22449" fill="#6D1C8E"/>
<circle cx="225.713" cy="257.959" r="3.22449" fill="#6D1C8E"/>
<circle cx="161.224" cy="22.5723" r="3.22449" fill="#DDBDEC"/>
<circle cx="219.267" cy="41.9153" r="3.22449" fill="#6D1C8E"/>
<circle cx="254.736" cy="87.0613" r="3.22449" fill="#6D1C8E"/>
<circle cx="264.406" cy="219.266" r="3.22449" fill="#DDBDEC"/>
<circle cx="232.166" cy="103.183" r="3.22449" fill="#6D1C8E"/>
<circle cx="80.6151" cy="58.0389" r="3.22449" fill="#6D1C8E"/>
<circle cx="141.881" cy="93.5112" r="3.22449" fill="#6D1C8E"/>
<circle cx="48.3651" cy="70.9377" r="3.22449" fill="#6D1C8E"/>
<circle cx="106.406" cy="90.2856" r="3.22449" fill="#DDBDEC"/>
<circle cx="296.65" cy="180.572" r="3.22449" fill="#6D1C8E"/>
<circle cx="222.488" cy="203.145" r="3.22449" fill="#6D1C8E"/>
<circle cx="164.447" cy="293.428" r="3.22449" fill="#DDBDEC"/>
<circle cx="170.896" cy="180.572" r="3.22449" fill="#6D1C8E"/>
<circle cx="280.529" cy="119.304" r="3.22449" fill="#6D1C8E"/>
<circle cx="51.5897" cy="228.938" r="3.22449" fill="#DDBDEC"/>
<circle cx="109.631" cy="238.613" r="3.22449" fill="#6D1C8E"/>
<circle cx="167.674" cy="257.959" r="3.22449" fill="#6D1C8E"/>
<circle cx="77.3846" cy="251.511" r="3.22449" fill="#6D1C8E"/>
<circle cx="135.428" cy="270.857" r="3.22449" fill="#6D1C8E"/>
<circle cx="169.284" cy="120.918" r="1.61224" fill="#DDBDEC"/>
<circle cx="108.018" cy="162.836" r="1.61224" fill="#DDBDEC"/>
<circle cx="56.4306" cy="101.571" r="1.61224" fill="#DDBDEC"/>
<circle cx="14.5068" cy="149.94" r="1.61224" fill="#DDBDEC"/>
<circle cx="256.349" cy="62.8766" r="1.61224" fill="#DDBDEC"/>
<circle cx="185.409" cy="56.4267" r="1.61224" fill="#DDBDEC"/>
<circle cx="108.018" cy="275.692" r="1.61224" fill="#DDBDEC"/>
<circle cx="262.794" cy="256.346" r="1.61224" fill="#DDBDEC"/>
<circle cx="207.977" cy="285.368" r="1.61224" fill="#DDBDEC"/>
<circle cx="301.487" cy="143.489" r="1.61224" fill="#DDBDEC"/>
<circle cx="246.671" cy="124.142" r="1.61224" fill="#DDBDEC"/>
<circle cx="201.53" cy="178.96" r="1.61224" fill="#DDBDEC"/>
<circle cx="243.452" cy="227.326" r="1.61224" fill="#DDBDEC"/>
<circle cx="130.593" cy="214.427" r="1.61224" fill="#DDBDEC"/>
<circle cx="75.7724" cy="149.94" r="1.61224" fill="#DDBDEC"/>
<circle cx="137.038" cy="301.489" r="1.61224" fill="#DDBDEC"/>
<circle cx="156.39" cy="159.612" r="1.61224" fill="#DDBDEC"/>
</svg>
