<svg width="249" height="467" viewBox="0 0 249 467" fill="none" xmlns="http://www.w3.org/2000/svg">
<g opacity="0.6">
<circle cx="179.956" cy="107.503" r="4.15556" transform="rotate(-18.7834 179.956 107.503)" fill="#7B3498"/>
<circle cx="145.966" cy="136.62" r="4.15556" transform="rotate(-18.7834 145.966 136.62)" fill="#7B3498"/>
<circle cx="224.811" cy="136.141" r="4.15556" transform="rotate(-18.7834 224.811 136.141)" fill="#7B3498"/>
<circle cx="252.831" cy="205.619" r="4.15556" transform="rotate(-18.7834 252.831 205.619)" fill="#7B3498"/>
<circle cx="110.876" cy="201.227" r="4.15556" transform="rotate(-18.7834 110.876 201.227)" fill="#7B3498"/>
<circle cx="189.722" cy="200.747" r="4.15556" transform="rotate(-18.7834 189.722 200.747)" fill="#FFF8CF"/>
<circle cx="76.8875" cy="230.343" r="4.15556" transform="rotate(-18.7834 76.8875 230.343)" fill="#7B3498"/>
<circle cx="155.733" cy="229.864" r="4.15556" transform="rotate(-18.7834 155.733 229.864)" fill="#7B3498"/>
<circle cx="211.054" cy="250.553" r="4.15556" transform="rotate(-18.7834 211.054 250.553)" fill="#7B3498"/>
<circle cx="183.751" cy="299.343" r="4.15556" transform="rotate(-18.7834 183.751 299.343)" fill="#7B3498"/>
<circle cx="102.151" cy="278.812" r="4.15556" transform="rotate(-18.7834 102.151 278.812)" fill="#7B3498"/>
<circle cx="144.327" cy="299.583" r="4.15556" transform="rotate(-18.7834 144.327 299.583)" fill="#7B3498"/>
<circle cx="93.1844" cy="316.977" r="4.15556" transform="rotate(-18.7834 93.1844 316.977)" fill="#7B3498"/>
<circle cx="119.444" cy="97.358" r="4.15556" transform="rotate(-18.7834 119.444 97.358)" fill="#7B3498"/>
<circle cx="182.313" cy="62.8087" r="4.15556" transform="rotate(-18.7834 182.313 62.8087)" fill="#FFF8CF"/>
<circle cx="98.6746" cy="139.536" r="4.15556" transform="rotate(-18.7834 98.6746 139.536)" fill="#7B3498"/>
<circle cx="188.143" cy="157.39" r="4.15556" transform="rotate(-18.7834 188.143 157.39)" fill="#7B3498"/>
<circle cx="64.6864" cy="168.655" r="4.15556" transform="rotate(-18.7834 64.6864 168.655)" fill="#7B3498"/>
<circle cx="143.528" cy="168.174" r="4.15556" transform="rotate(-18.7834 143.528 168.174)" fill="#FFF8CF"/>
<circle cx="134.184" cy="360.094" r="4.15556" transform="rotate(-18.7834 134.184 360.094)" fill="#FFF8CF"/>
<circle cx="209.014" cy="347.812" r="4.15556" transform="rotate(-18.7834 209.014 347.812)" fill="#7B3498"/>
<circle cx="175.024" cy="376.929" r="4.15556" transform="rotate(-18.7834 175.024 376.929)" fill="#7B3498"/>
<circle cx="253.872" cy="376.449" r="4.15556" transform="rotate(-18.7834 253.872 376.449)" fill="#7B3498"/>
<circle cx="232.96" cy="179.458" r="2.07778" transform="rotate(-18.7834 232.96 179.458)" fill="#FFF8CF"/>
<circle cx="175.603" cy="256.026" r="2.07778" transform="rotate(-18.7834 175.603 256.026)" fill="#FFF8CF"/>
<circle cx="87.2338" cy="202.684" r="2.07778" transform="rotate(-18.7834 87.2338 202.684)" fill="#FFF8CF"/>
<circle cx="56.1576" cy="279.093" r="2.07778" transform="rotate(-18.7834 56.1576 279.093)" fill="#FFF8CF"/>
<circle cx="225.867" cy="94.0829" r="2.07778" transform="rotate(-18.7834 225.867 94.0829)" fill="#FFF8CF"/>
<circle cx="222.435" cy="393.724" r="2.07778" transform="rotate(-18.7834 222.435 393.724)" fill="#FFF8CF"/>
<circle cx="224.552" cy="309.608" r="2.07778" transform="rotate(-18.7834 224.552 309.608)" fill="#FFF8CF"/>
<circle cx="130.908" cy="253.67" r="2.07778" transform="rotate(-18.7834 130.908 253.67)" fill="#FFF8CF"/>
<circle cx="233.279" cy="232.021" r="2.07778" transform="rotate(-18.7834 233.279 232.021)" fill="#FFF8CF"/>
</g>
</svg>
