<svg width="472" height="467" viewBox="0 0 472 467" fill="none" xmlns="http://www.w3.org/2000/svg">
<g opacity="0.6">
<circle cx="179.957" cy="107.503" r="4.15556" transform="rotate(-18.7834 179.957 107.503)" fill="#7B3498"/>
<circle cx="258.803" cy="107.023" r="4.15556" transform="rotate(-18.7834 258.803 107.023)" fill="#7B3498"/>
<circle cx="145.967" cy="136.62" r="4.15556" transform="rotate(-18.7834 145.967 136.62)" fill="#7B3498"/>
<circle cx="224.812" cy="136.141" r="4.15556" transform="rotate(-18.7834 224.812 136.141)" fill="#7B3498"/>
<circle cx="286.822" cy="176.501" r="4.15556" transform="rotate(-18.7834 286.822 176.501)" fill="#FFF8CF"/>
<circle cx="365.666" cy="176.023" r="4.15556" transform="rotate(-18.7834 365.666 176.023)" fill="#7B3498"/>
<circle cx="252.832" cy="205.619" r="4.15556" transform="rotate(-18.7834 252.832 205.619)" fill="#7B3498"/>
<circle cx="331.676" cy="205.139" r="4.15556" transform="rotate(-18.7834 331.676 205.139)" fill="#7B3498"/>
<circle cx="110.877" cy="201.226" r="4.15556" transform="rotate(-18.7834 110.877 201.226)" fill="#7B3498"/>
<circle cx="189.722" cy="200.747" r="4.15556" transform="rotate(-18.7834 189.722 200.747)" fill="#FFF8CF"/>
<circle cx="76.8885" cy="230.343" r="4.15556" transform="rotate(-18.7834 76.8885 230.343)" fill="#7B3498"/>
<circle cx="155.734" cy="229.864" r="4.15556" transform="rotate(-18.7834 155.734 229.864)" fill="#7B3498"/>
<circle cx="211.055" cy="250.553" r="4.15556" transform="rotate(-18.7834 211.055 250.553)" fill="#7B3498"/>
<circle cx="315.24" cy="311.683" r="4.15556" transform="rotate(-18.7834 315.24 311.683)" fill="#7B3498"/>
<circle cx="183.752" cy="299.343" r="4.15556" transform="rotate(-18.7834 183.752 299.343)" fill="#7B3498"/>
<circle cx="262.598" cy="298.863" r="4.15556" transform="rotate(-18.7834 262.598 298.863)" fill="#FFF8CF"/>
<circle cx="102.152" cy="278.812" r="4.15556" transform="rotate(-18.7834 102.152 278.812)" fill="#7B3498"/>
<circle cx="144.328" cy="299.583" r="4.15556" transform="rotate(-18.7834 144.328 299.583)" fill="#7B3498"/>
<circle cx="93.1854" cy="316.977" r="4.15556" transform="rotate(-18.7834 93.1854 316.977)" fill="#7B3498"/>
<circle cx="119.445" cy="97.3577" r="4.15556" transform="rotate(-18.7834 119.445 97.3577)" fill="#7B3498"/>
<circle cx="358.676" cy="323.247" r="4.15556" transform="rotate(-18.7834 358.676 323.247)" fill="#7B3498"/>
<circle cx="182.314" cy="62.8082" r="4.15556" transform="rotate(-18.7834 182.314 62.8082)" fill="#FFF8CF"/>
<circle cx="261.16" cy="62.3278" r="4.15556" transform="rotate(-18.7834 261.16 62.3278)" fill="#7B3498"/>
<circle cx="323.17" cy="102.689" r="4.15556" transform="rotate(-18.7834 323.17 102.689)" fill="#7B3498"/>
<circle cx="389.83" cy="259.979" r="4.15556" transform="rotate(-18.7834 389.83 259.979)" fill="#FFF8CF"/>
<circle cx="302.318" cy="131.727" r="4.15556" transform="rotate(-18.7834 302.318 131.727)" fill="#7B3498"/>
<circle cx="98.6756" cy="139.536" r="4.15556" transform="rotate(-18.7834 98.6756 139.536)" fill="#7B3498"/>
<circle cx="188.144" cy="157.389" r="4.15556" transform="rotate(-18.7834 188.144 157.389)" fill="#7B3498"/>
<circle cx="64.6873" cy="168.654" r="4.15556" transform="rotate(-18.7834 64.6873 168.654)" fill="#7B3498"/>
<circle cx="143.529" cy="168.174" r="4.15556" transform="rotate(-18.7834 143.529 168.174)" fill="#FFF8CF"/>
<circle cx="413.117" cy="199.388" r="4.15556" transform="rotate(-18.7834 413.117 199.388)" fill="#7B3498"/>
<circle cx="331.994" cy="257.704" r="4.15556" transform="rotate(-18.7834 331.994 257.704)" fill="#7B3498"/>
<circle cx="298.644" cy="391.946" r="4.15556" transform="rotate(-18.7834 298.644 391.946)" fill="#FFF8CF"/>
<circle cx="259.681" cy="251.573" r="4.15556" transform="rotate(-18.7834 259.681 251.573)" fill="#7B3498"/>
<circle cx="368.021" cy="131.327" r="4.15556" transform="rotate(-18.7834 368.021 131.327)" fill="#7B3498"/>
<circle cx="134.185" cy="360.093" r="4.15556" transform="rotate(-18.7834 134.185 360.093)" fill="#FFF8CF"/>
<circle cx="209.015" cy="347.811" r="4.15556" transform="rotate(-18.7834 209.015 347.811)" fill="#7B3498"/>
<circle cx="287.859" cy="347.333" r="4.15556" transform="rotate(-18.7834 287.859 347.333)" fill="#7B3498"/>
<circle cx="175.025" cy="376.928" r="4.15556" transform="rotate(-18.7834 175.025 376.928)" fill="#7B3498"/>
<circle cx="253.873" cy="376.448" r="4.15556" transform="rotate(-18.7834 253.873 376.448)" fill="#7B3498"/>
<circle cx="232.961" cy="179.458" r="2.07778" transform="rotate(-18.7834 232.961 179.458)" fill="#FFF8CF"/>
<circle cx="175.604" cy="256.026" r="2.07778" transform="rotate(-18.7834 175.604 256.026)" fill="#FFF8CF"/>
<circle cx="87.2348" cy="202.684" r="2.07778" transform="rotate(-18.7834 87.2348 202.684)" fill="#FFF8CF"/>
<circle cx="56.1586" cy="279.093" r="2.07778" transform="rotate(-18.7834 56.1586 279.093)" fill="#FFF8CF"/>
<circle cx="315.102" cy="72.5127" r="2.07778" transform="rotate(-18.7834 315.102 72.5127)" fill="#FFF8CF"/>
<circle cx="225.868" cy="94.0825" r="2.07778" transform="rotate(-18.7834 225.868 94.0825)" fill="#FFF8CF"/>
<circle cx="222.436" cy="393.723" r="2.07778" transform="rotate(-18.7834 222.436 393.723)" fill="#FFF8CF"/>
<circle cx="403.25" cy="305.893" r="2.07778" transform="rotate(-18.7834 403.25 305.893)" fill="#FFF8CF"/>
<circle cx="348.413" cy="364.047" r="2.07778" transform="rotate(-18.7834 348.413 364.047)" fill="#FFF8CF"/>
<circle cx="403.629" cy="152.137" r="2.07778" transform="rotate(-18.7834 403.629 152.137)" fill="#FFF8CF"/>
<circle cx="328.721" cy="151.278" r="2.07778" transform="rotate(-18.7834 328.721 151.278)" fill="#FFF8CF"/>
<circle cx="296.389" cy="236.894" r="2.07778" transform="rotate(-18.7834 296.389 236.894)" fill="#FFF8CF"/>
<circle cx="367.606" cy="278.512" r="2.07778" transform="rotate(-18.7834 367.606 278.512)" fill="#FFF8CF"/>
<circle cx="224.553" cy="309.607" r="2.07778" transform="rotate(-18.7834 224.553 309.607)" fill="#FFF8CF"/>
<circle cx="130.909" cy="253.67" r="2.07778" transform="rotate(-18.7834 130.909 253.67)" fill="#FFF8CF"/>
<circle cx="268.549" cy="413.155" r="2.07778" transform="rotate(-18.7834 268.549 413.155)" fill="#FFF8CF"/>
<circle cx="233.28" cy="232.02" r="2.07778" transform="rotate(-18.7834 233.28 232.02)" fill="#FFF8CF"/>
</g>
</svg>
