<svg width="33" height="33" viewBox="0 0 33 33" fill="none" xmlns="http://www.w3.org/2000/svg">
<path d="M12.374 30.2505H20.624C27.499 30.2505 30.249 27.5005 30.249 20.6255V12.3755C30.249 5.50049 27.499 2.75049 20.624 2.75049H12.374C5.49902 2.75049 2.74902 5.50049 2.74902 12.3755V20.6255C2.74902 27.5005 5.49902 30.2505 12.374 30.2505Z" stroke="#6D1C8E" stroke-width="1.5" stroke-linecap="round" stroke-linejoin="round"/>
<path d="M16.501 21.312C19.1588 21.312 21.3135 19.1574 21.3135 16.4995C21.3135 13.8416 19.1588 11.687 16.501 11.687C13.8431 11.687 11.6885 13.8416 11.6885 16.4995C11.6885 19.1574 13.8431 21.312 16.501 21.312Z" stroke="#6D1C8E" stroke-width="1.5" stroke-linecap="round" stroke-linejoin="round"/>
<path d="M24.2487 9.62549H24.2646" stroke="#6D1C8E" stroke-width="2" stroke-linecap="round" stroke-linejoin="round"/>
</svg>
