<svg width="35" height="35" viewBox="0 0 35 35" fill="none" xmlns="http://www.w3.org/2000/svg">
<g clip-path="url(#clip0_1988_3294)">
<path d="M26.2497 5.8335H8.74967C7.13884 5.8335 5.83301 7.13933 5.83301 8.75016V26.2502C5.83301 27.861 7.13884 29.1668 8.74967 29.1668H26.2497C27.8605 29.1668 29.1663 27.861 29.1663 26.2502V8.75016C29.1663 7.13933 27.8605 5.8335 26.2497 5.8335Z" stroke="#6D1C8E" stroke-width="1.5" stroke-linecap="round" stroke-linejoin="round"/>
<path d="M11.667 16.0415V23.3332" stroke="#6D1C8E" stroke-width="1.5" stroke-linecap="round" stroke-linejoin="round"/>
<path d="M11.667 11.6665V11.679" stroke="#6D1C8E" stroke-width="1.5" stroke-linecap="round" stroke-linejoin="round"/>
<path d="M17.5 23.3332V16.0415" stroke="#6D1C8E" stroke-width="1.5" stroke-linecap="round" stroke-linejoin="round"/>
<path d="M23.3333 23.3332V18.9582C23.3333 18.1846 23.026 17.4428 22.4791 16.8958C21.9321 16.3488 21.1902 16.0415 20.4167 16.0415C19.6431 16.0415 18.9013 16.3488 18.3543 16.8958C17.8073 17.4428 17.5 18.1846 17.5 18.9582" stroke="#6D1C8E" stroke-width="1.5" stroke-linecap="round" stroke-linejoin="round"/>
</g>
<defs>
<clipPath id="clip0_1988_3294">
<rect width="35" height="35" fill="white"/>
</clipPath>
</defs>
</svg>
