<svg width="33" height="24" viewBox="0 0 33 24" fill="none" xmlns="http://www.w3.org/2000/svg">
<g clip-path="url(#clip0_1702_4858)">
<path d="M32.8096 11.3471C32.7368 10.1326 32.6786 8.89631 32.6222 7.70094C32.5672 6.53681 32.5105 5.33302 32.4401 4.14951C32.3384 2.43082 31.3479 1.17872 29.576 0.528557C28.9503 0.29913 28.1803 0.177808 27.2237 0.157337C24.6896 0.103547 22.113 0.078683 19.621 0.0545102C18.734 0.0458716 17.847 0.0368314 16.9602 0.0273944C16.9379 0.0108647 16.9099 0.00178068 16.8809 0.00176739H14.8153C13.1367 0.00176739 11.4582 0.00221111 9.78003 0.00293707C9.47286 0.00293707 9.16472 0.00231684 8.85767 0.00155462C7.93458 -0.00127647 6.97994 -0.00362607 6.04107 0.0268627C4.75923 0.0683491 3.77218 0.29209 2.93502 0.731127C1.23957 1.62053 0.335175 2.89008 0.246943 4.50478C0.200461 5.35509 0.184803 6.21995 0.169754 7.05643L0.159925 7.58014C0.146332 8.28217 0.13213 8.98405 0.117324 9.68581C0.0696279 11.9982 0.0202335 14.3892 0.000693968 16.7418C-0.00719465 17.6782 0.0457193 18.7862 0.49707 19.9031C1.16457 21.5553 2.3958 22.6234 4.26115 23.1685C5.99665 23.6637 7.80645 23.9176 9.6276 23.9211C14.1544 23.9736 18.9027 23.9984 24.4907 23.9984H25.5762C26.6032 24.014 27.6283 23.9145 28.6278 23.702C30.9189 23.1762 32.2767 21.9163 32.6633 19.9569C32.7863 19.2923 32.8717 18.6224 32.9192 17.9499C33.0865 15.9093 32.961 13.8414 32.8394 11.8414L32.8096 11.3471ZM11.6398 22.1417C9.67894 22.1363 7.58372 22.0698 5.54809 21.6218C4.72901 21.4417 4.14319 21.2307 3.67509 20.9452L13.7774 12.6096L14.0594 12.8818C14.3405 13.1533 14.6307 13.4334 14.9238 13.7111C15.7721 14.515 16.6044 14.5809 17.5425 13.9186C17.9264 13.6478 18.2911 13.3414 18.6438 13.0461C18.7773 12.934 18.9123 12.821 19.0492 12.7087L28.9367 21.6629C28.595 21.915 28.1819 21.9678 27.7467 22.0234L27.6217 22.0395C27.1542 22.0953 26.6828 22.1212 26.2112 22.1168L23.4455 22.1258C19.5757 22.1387 15.5749 22.1523 11.6398 22.1417ZM27.0772 3.53266C25.5978 4.73098 24.0681 5.96996 22.6095 7.23274C21.1538 8.49279 19.7267 9.81335 18.3465 11.0908C17.7752 11.6196 17.1854 12.1655 16.6029 12.6982L4.31686 1.88722C4.40481 1.86623 4.49207 1.84504 4.57864 1.82363C4.9136 1.74185 5.23 1.66439 5.55319 1.60744C7.16016 1.32433 8.81471 1.36283 10.4149 1.40062C10.7723 1.40889 11.1296 1.41708 11.4868 1.42231C12.0302 1.42993 12.5834 1.44619 13.1181 1.46198C13.5826 1.47559 14.0628 1.48974 14.5358 1.49813C15.8658 1.52172 17.1958 1.54437 18.526 1.56608C21.4011 1.61421 24.3738 1.66414 27.2973 1.72708C27.7083 1.74743 28.1168 1.79904 28.5182 1.88137C28.6759 1.90957 28.8394 1.93851 29.0018 1.96378V1.96739C28.3623 2.49169 27.7092 3.02087 27.077 3.53309L27.0772 3.53266ZM6.38477 16.684C5.15257 17.7352 3.87983 18.8212 2.64908 19.931C2.1379 18.849 1.87296 17.9609 1.79408 17.0704C1.57562 14.6001 1.6664 12.1411 1.77879 9.83435C1.83012 8.78238 1.85063 7.71242 1.87054 6.67766C1.88413 5.97424 1.89821 5.24685 1.92175 4.53254C1.94603 3.77489 2.22844 3.24327 2.86001 2.77342L12.4598 11.2349C10.5055 13.1677 8.41081 14.9551 6.38404 16.6848L6.38477 16.684ZM30.5858 19.7462C30.5409 19.9632 30.4809 20.1775 30.406 20.3877C30.379 20.4692 30.3521 20.551 30.3267 20.6327L30.288 20.6442L20.1121 11.7473C23.6298 8.49148 26.9659 5.71478 30.3027 3.2648C30.317 3.3224 30.3316 3.37846 30.3459 3.43313C30.4054 3.63154 30.4448 3.83428 30.4639 4.03903C30.5764 6.09964 30.6681 8.13321 30.7355 9.67485C30.7987 11.1215 30.8526 12.5488 30.8958 13.9174C30.9498 15.6504 30.9559 17.6986 30.5851 19.7467L30.5858 19.7462Z" fill="#6D1C8E"/>
</g>
<defs>
<clipPath id="clip0_1702_4858">
<rect width="33" height="24" fill="white"/>
</clipPath>
</defs>
</svg>
