<svg width="30" height="30" viewBox="0 0 30 30" fill="none" xmlns="http://www.w3.org/2000/svg">
<path d="M1.25273 29.3349C1.66819 29.2801 2.07886 29.1938 2.48115 29.0768C2.57328 29.0525 2.66519 29.0282 2.75711 29.0048C3.7654 28.7474 4.84655 28.4684 5.92166 28.1708C6.52613 28.0036 6.94295 28.0675 7.36188 28.3914C7.64805 28.6131 8.00678 28.7374 8.35358 28.8579C8.42975 28.8843 8.5055 28.9109 8.57997 28.9376C10.7964 29.7448 13.0885 29.8393 15.2379 29.8187C15.4932 29.8346 15.7495 29.8426 16.0065 29.8425C18.5656 29.8425 21.1884 29.0604 23.6396 27.56C26.4168 25.8599 28.2926 23.395 29.2147 20.2338C29.9649 17.6613 30.0037 14.8269 29.3334 11.5686C28.5158 7.5934 26.3432 4.52662 22.8761 2.45206C21.21 1.4575 19.3996 0.72575 17.5091 0.282746C16.2163 -0.0125671 14.8814 -0.0772021 13.5661 0.0919028C11.9609 0.278263 10.4663 0.755505 8.71634 1.41486C5.14623 2.75988 2.63189 5.36692 1.02934 9.38512C-0.32172 12.7732 -0.263327 16.5194 1.2138 21.1743C1.49699 22.0667 1.5322 22.7388 1.33146 23.4216C1.06646 24.3227 0.811992 25.2423 0.565502 26.1318C0.448694 26.554 0.331312 26.9762 0.213369 27.3984C0.192093 27.4726 0.168377 27.5468 0.144334 27.621C0.112419 27.7183 0.0798769 27.8191 0.0541322 27.9216C-0.0577828 28.3685 0.00506771 28.7573 0.231237 29.0165C0.451131 29.2682 0.814753 29.3814 1.25273 29.3349ZM2.87232 21.6567C2.30189 20.1163 2.09498 18.4413 1.89487 16.8214C1.87147 16.6321 1.84791 16.443 1.82423 16.2538C1.55626 14.1375 1.76634 12.1376 2.44868 10.3099C3.81283 6.65513 6.04827 4.24889 9.28241 2.95306C10.5435 2.44804 12.0476 1.90465 13.6427 1.70313C16.0648 1.39709 18.5068 1.9446 21.3278 3.42605C23.615 4.62722 25.2727 6.21614 26.395 8.28327C27.1084 9.61656 27.5762 11.0665 27.7762 12.5643C28.0588 14.512 28.2681 16.8257 27.6771 19.2151C26.9599 22.1165 25.3553 24.2949 22.7718 25.8745C20.6423 27.1912 18.1756 27.8653 15.6698 27.8152C14.1379 27.7927 12.7869 27.7203 11.5408 27.5935C10.3913 27.4945 9.27796 27.1438 8.28019 26.5666C7.92972 26.3435 7.52394 26.2216 7.10805 26.2146C6.91367 26.2155 6.72027 26.2421 6.53284 26.2936C5.73295 26.5071 4.91263 26.7007 4.11933 26.8881C3.76018 26.973 3.40114 27.0585 3.0422 27.1448C2.79752 27.2042 2.55285 27.2655 2.25626 27.3399L1.92178 27.4237C2.01678 27.0753 2.10615 26.7394 2.19296 26.4129C2.41753 25.5686 2.62976 24.7711 2.87741 23.996C3.11688 23.2472 3.20764 22.5622 2.87232 21.6567Z" fill="#6D1C8E"/>
<path d="M5.39647 10.6027C5.60722 11.1203 5.8573 11.6212 6.14456 12.101C8.28285 15.4686 10.6719 18.4814 13.246 21.0555C14.079 21.8712 14.9664 22.6298 15.9023 23.3261C16.6766 23.9405 17.6359 24.2772 18.6257 24.2817C19.1362 24.278 19.6434 24.1978 20.13 24.0438C21.5883 23.5957 22.8427 22.784 23.981 21.9735C24.4545 21.6366 24.7238 21.2167 24.7603 20.7593C24.797 20.2973 24.5858 19.8265 24.1495 19.398C22.7855 18.0575 21.3232 16.7779 19.946 15.5947C19.1297 14.8936 18.5737 14.883 17.6583 15.5509C17.5425 15.6357 17.4303 15.726 17.3217 15.8137C17.2341 15.8844 17.1468 15.9551 17.0571 16.0228C16.1927 16.6764 16.0539 16.6733 15.2042 15.982C14.9256 15.7646 14.6773 15.511 14.466 15.2281L14.3171 15.0194C13.8099 14.3346 13.3376 13.6246 12.9022 12.8923C12.0045 11.3198 12.0656 11.0806 13.6274 10.0479C13.6497 10.0331 13.6658 10.0107 13.6726 9.98485C13.8676 9.24694 13.5496 8.75763 13.177 8.3388C12.7613 7.87152 12.3462 7.40365 11.9316 6.93524C11.4558 6.39864 10.9795 5.86234 10.503 5.32629C10.3506 5.15498 10.1838 4.99258 10.0402 4.85371C9.72816 4.55307 9.38519 4.49157 9.02019 4.67146C7.79551 5.2757 6.43019 6.08625 5.58817 7.51936C5.0019 8.51753 4.92657 9.53061 5.36401 10.5306L5.39647 10.6027ZM11.8297 9.66259C11.6449 9.76145 11.4733 9.88333 11.3191 10.0253C10.7766 10.5732 10.5606 11.2858 10.7406 11.9313C11.5569 14.8583 12.7486 16.7298 14.605 17.9993C15.6466 18.7117 16.7139 18.7073 17.7778 17.9865C18.1052 17.7647 18.4202 17.5229 18.7538 17.267C18.8874 17.1644 19.0247 17.059 19.1679 16.951L22.4332 20.4345C21.1976 21.4084 20.1309 21.9492 18.9871 22.1836C18.6283 22.2665 18.2545 22.2621 17.8977 22.1707C17.541 22.0792 17.2116 21.9036 16.9373 21.6584C16.7071 21.4565 16.4762 21.2551 16.2446 21.0541C15.2622 20.1996 14.2462 19.3156 13.3264 18.3734C11.3876 16.3863 9.57595 14.1125 7.78776 11.4217C7.60425 11.1455 7.44477 10.8433 7.29041 10.5513C7.22828 10.4335 7.16615 10.3158 7.10222 10.1992C6.63807 9.35167 6.73914 8.52748 7.39435 7.81585C7.79242 7.40052 8.21267 7.00686 8.65328 6.63663C8.84243 6.47137 9.0371 6.30142 9.23784 6.12068L12.0052 9.55689C11.9458 9.59378 11.8871 9.62899 11.8297 9.66259Z" fill="#6D1C8E"/>
</svg>
