<svg width="73" height="61" viewBox="0 0 73 61" fill="none" xmlns="http://www.w3.org/2000/svg">
<path d="M56.9468 53.7044C44.6018 60.8318 32.0322 54.7454 24.9049 42.4004C17.7775 30.0555 18.7913 16.1267 31.1363 8.99937C43.4813 1.87201 61.0095 -1.16245 68.1369 11.1825C75.2642 23.5275 69.2917 46.5771 56.9468 53.7044Z" fill="#FFF8CF"/>
<g clip-path="url(#clip0_2176_3663)">
<path d="M11.209 41.283C11.2857 36.6521 12.4942 32.2609 13.8157 27.892C15.6836 21.7631 18.4696 15.9538 22.0785 10.6629C24.1989 7.59332 26.6971 4.80375 29.514 2.36026C29.9002 2.01126 30.2413 1.61515 30.5293 1.18124C31.112 0.317245 31.8828 -0.107963 32.8618 0.180121C33.6226 0.372857 34.3383 0.71356 34.968 1.1828C36.4354 2.36187 37.8271 3.63258 39.1346 4.98737C42.8324 8.92622 46.1935 13.1544 48.9136 17.8263C52.6027 24.1632 54.9354 30.9591 54.8886 38.3927C54.863 42.2818 54.2747 46.0866 52.2852 49.5311C49.4761 54.397 45.1754 57.4452 40.01 59.3024C34.9339 61.1277 29.7184 61.2669 24.4962 59.9587C18.4748 58.4499 12.8055 53.6827 11.6287 45.5945C11.4223 44.1672 11.3458 42.7206 11.209 41.283ZM31.7224 3.89757C29.0185 6.29195 25.948 10.0181 24.0961 12.9381C20.1881 19.1327 17.3231 25.9289 15.6159 33.0549C14.5991 37.2134 14.0554 41.386 14.782 45.6773C15.9201 52.4114 20.8575 56.3836 26.2329 57.3342C28.6962 57.7699 31.1686 57.9855 33.6771 57.6866C38.6178 57.0971 42.948 55.2002 46.5261 51.7145C48.5419 49.804 49.9535 47.3428 50.5851 44.6357C51.3584 41.3379 51.4753 37.9198 50.9291 34.5768C49.9821 28.7193 47.7545 23.1436 44.4059 18.2489C41.9698 14.657 39.239 11.2748 36.2421 8.13732C34.8252 6.66205 33.2599 5.33107 31.7224 3.89757Z" fill="#491F5A"/>
<path d="M48.7821 38.4757C48.8624 39.8894 48.3574 41.8686 47.3257 43.6958C46.9456 44.3319 46.4757 44.9099 45.9308 45.4117C45.4685 45.8556 44.84 46.0448 44.2534 45.6057C43.7387 45.2213 43.675 44.6461 43.8843 44.0679C44.0771 43.4879 44.3158 42.924 44.598 42.382C46.8305 38.3703 46.5422 34.3295 44.7863 30.2604C44.6305 29.8995 44.3872 29.5361 44.3731 29.1665C44.3601 28.8292 44.5123 28.3294 44.7589 28.1831C44.9303 28.1233 45.1134 28.1057 45.2928 28.1318C45.4724 28.1577 45.643 28.2269 45.7901 28.333C46.1733 28.6913 46.4895 29.115 46.7243 29.584C48.1466 32.1255 48.7391 34.8802 48.7821 38.4757Z" fill="#491F5A"/>
<path d="M42.9261 49.4151C42.9299 49.5945 42.8977 49.7727 42.8309 49.939C42.7641 50.1053 42.6641 50.2566 42.5375 50.3832C42.4108 50.5098 42.2597 50.6092 42.0934 50.6756C41.9271 50.742 41.7493 50.774 41.5702 50.7694C41.3914 50.7648 41.2152 50.7241 41.0525 50.6492C40.8898 50.5746 40.744 50.4675 40.6237 50.3347C40.5035 50.2017 40.4117 50.0459 40.3533 49.8762C40.295 49.7068 40.2717 49.5271 40.2848 49.3482C40.3196 48.5832 40.8987 47.9532 41.5541 47.9642C41.9222 47.9908 42.2671 48.1546 42.5211 48.423C42.7749 48.6916 42.9194 49.0455 42.9261 49.4151Z" fill="#491F5A"/>
</g>
<defs>
<clipPath id="clip0_2176_3663">
<rect width="44" height="61" fill="white" transform="translate(11)"/>
</clipPath>
</defs>
</svg>
