<svg width="74" height="57" viewBox="0 0 74 57" fill="none" xmlns="http://www.w3.org/2000/svg">
<g id="Container">
<path id="Ellipse 6" d="M59.3843 53.7044C47.0393 60.8318 34.4697 54.7454 27.3424 42.4004C20.215 30.0555 21.2288 16.1267 33.5738 8.99934C45.9188 1.87198 63.447 -1.16248 70.5744 11.1825C77.7017 23.5274 71.7292 46.577 59.3843 53.7044Z" fill="#FDFCFD"/>
<path id="Vector" d="M57.6096 22.9192C57.292 22.632 56.9635 22.335 56.6501 22.035C54.0315 19.5288 51.4136 17.0216 48.7962 14.5135C44.3139 10.2199 39.83 5.92876 35.3446 1.6399C33.7284 0.0956387 33.025 0.109252 31.3835 1.71763L30.2228 2.85484C24.515 8.4465 18.6128 14.2287 12.7878 19.8951C11.5504 21.0985 10.2568 22.2884 9.00559 23.4379C8.40012 23.9941 7.79588 24.552 7.19289 25.1115C6.93294 25.353 6.14168 26.0903 6.82256 26.883C7.27852 27.4139 7.88692 27.3816 8.63066 26.7875C9.11531 26.3997 9.59953 25.997 10.068 25.6062C10.3702 25.3541 10.6731 25.1033 10.9766 24.8533C11.1093 24.7435 11.2475 24.6442 11.4573 24.4927L11.5261 24.4429C11.5261 24.9108 11.5292 25.3651 11.5314 25.8077C11.537 27.0189 11.5423 28.1631 11.5206 29.3001C11.479 31.4626 11.4321 33.625 11.38 35.7876C11.3156 38.6087 11.2486 41.5257 11.2015 44.3949C11.1713 46.2173 11.154 48.1531 11.3001 50.0379C11.4578 52.0722 12.2359 52.8093 14.3841 52.9582C15.6889 53.0491 17.0156 53.1519 18.2988 53.2518C20.8368 53.4494 23.4611 53.6527 26.0478 53.7717C32.226 54.0559 38.5018 54.2715 44.7009 54.4129C44.9199 54.4177 45.1415 54.4201 45.3656 54.4204C47.1783 54.4063 48.9883 54.2754 50.7841 54.0282C53.4761 53.6784 54.4509 52.7358 54.7956 50.149C55.2284 46.9046 55.5199 43.4878 55.687 39.703C55.8346 36.3554 55.89 33.069 55.9485 29.5901C55.9708 28.2755 55.9949 26.9502 56.0205 25.6141C56.2489 25.8299 56.4462 26.0163 56.6539 26.1962C57.478 26.9102 58.3645 26.9717 58.9665 26.3565C59.1023 26.2219 59.2096 26.0611 59.2819 25.8841C59.3544 25.707 59.3903 25.517 59.3879 25.3258C59.3557 24.7942 59.1146 24.2973 58.7173 23.944C58.3555 23.5942 57.9762 23.2501 57.6096 22.9192ZM27.1901 33.105L37.5156 32.1271L37.8395 51.7705L26.7867 51.3446L27.1901 33.105ZM40.5711 34.9411C40.5683 33.9458 40.5149 32.9369 40.4634 31.9613C40.4503 31.7125 40.4373 31.4635 40.4249 31.2147C40.39 30.5158 40.1982 30.0235 39.8384 29.7093C39.4724 29.3899 38.9422 29.2643 38.2177 29.3299C34.0262 29.7012 30.1838 30.0185 26.4711 30.2996C24.8967 30.4188 24.366 30.9921 24.3673 32.5719C24.3739 39.3223 24.3722 44.5009 24.3612 49.3629C24.3522 49.7887 24.3215 50.2138 24.2692 50.6365C24.253 50.7915 24.2362 50.9504 24.2206 51.1147L13.7858 50.4639C13.7669 50.302 13.7464 50.1446 13.7258 49.99C13.6615 49.5785 13.6249 49.1631 13.6163 48.7466C13.6268 46.9316 13.648 45.0861 13.6686 43.3012C13.6929 41.1713 13.7181 38.9692 13.7255 36.8031C13.7328 34.7626 13.7273 32.6883 13.7223 30.6823C13.7161 28.2569 13.7098 25.7489 13.7251 23.2826C13.7244 22.8398 13.8804 22.4112 14.1655 22.0728C18.8765 17.5375 23.6922 12.9532 28.3497 8.52001L30.5231 6.45079C31.2188 5.78834 31.9192 5.13118 32.6345 4.45972L33.5192 3.6284C34.1482 4.23266 34.7754 4.83381 35.4007 5.43193C36.8474 6.817 38.3434 8.24956 39.7954 9.66559C41.6443 11.469 43.4902 13.275 45.3336 15.0835C47.6833 17.3855 50.1125 19.7654 52.511 22.0975C53.0044 22.5776 53.2295 22.9614 53.0913 23.7277C53.0096 24.3452 53.0116 24.9707 53.0975 25.5877C53.1428 25.9865 53.1647 26.3876 53.1632 26.789L53.1397 27.7112C53.0445 31.431 52.9461 35.2771 52.7659 39.0548C52.6584 41.3109 52.4812 43.6035 52.3119 45.8203C52.235 46.8198 52.1586 47.8198 52.087 48.8195L52.0837 48.8649C52.0771 48.958 52.0706 49.0516 52.0587 49.1442C51.8078 51.1316 51.6343 51.3099 49.7408 51.5281C46.7 51.8808 43.6346 51.9763 40.5777 51.8136L40.579 47.4474C40.581 43.3411 40.5828 39.0957 40.5714 34.9411H40.5711Z" fill="#491F5A"/>
</g>
</svg>
