<svg width="68" height="56" viewBox="0 0 68 56" fill="none" xmlns="http://www.w3.org/2000/svg">
<path d="M51.6209 33.5655C51.6209 47.8203 40.0652 55.6626 25.8105 55.6626C11.5557 55.6626 0 47.8203 0 33.5655C0 19.3108 6.13621 2.61365 20.3909 2.61365C34.6457 2.61365 51.6209 19.3108 51.6209 33.5655Z" fill="#FFF8CF"/>
<path d="M59.4349 34.6226C59.758 37.3653 60.0639 39.8901 60.3465 42.4173C60.3947 42.8481 60.322 43.2912 60.3528 43.7252C60.4606 45.248 59.615 46.1032 58.3155 46.6013C55.1973 47.7969 52.0955 49.0434 48.9367 50.1223C45.4772 51.3036 41.9681 52.3431 38.463 53.3852C37.8557 53.5541 37.2148 53.562 36.6033 53.4082C30.4764 51.8159 24.4302 49.9727 18.5954 47.4884C17.6696 47.1304 16.7726 46.7019 15.9121 46.2071C15.4407 45.8693 15.0692 45.4104 14.8367 44.879C14.6415 44.473 14.6549 43.9448 14.6539 43.4708C14.6467 40.4013 14.6396 37.3313 14.6869 34.2622C14.7157 34.0302 14.6708 33.7949 14.5583 33.5899C14.4458 33.3851 14.2715 33.2209 14.0603 33.1205C13.3654 32.7312 12.7054 32.2828 12.0874 31.7803C10.824 30.7142 10.6371 29.4534 11.5264 28.0589C11.8892 27.5362 12.3019 27.0497 12.7585 26.6064C13.9389 25.3717 15.1389 24.1578 16.3705 22.8952C14.9905 21.6581 13.6855 20.4913 12.3841 19.3204C12.0153 19.0162 11.6667 18.6882 11.3405 18.3385C10.4597 17.3072 10.5759 16.2884 11.655 15.4519C12.2216 15.0127 12.8198 14.6132 13.3938 14.1848C17.8299 10.8686 22.2562 7.53959 26.7044 4.23968C27.5777 3.61222 28.4838 3.03157 29.4188 2.50032C30.5403 1.84057 31.5986 1.9494 32.6089 2.81414C33.8504 3.87668 35.1314 4.89265 36.4022 5.92025C36.7395 6.19305 37.1011 6.43486 37.5265 6.7447C38.094 6.10103 38.6372 5.47809 39.188 4.8619C40.2771 3.64335 41.3685 2.42661 42.4622 1.21163C43.4873 0.0717493 44.1789 -0.154984 45.5103 0.54926C47.9352 1.83218 50.3722 3.11494 52.6781 4.59402C56.9348 7.32456 61.1013 10.196 65.3032 13.0118C65.5348 13.1676 65.7559 13.3382 65.9651 13.5229C66.9913 14.427 67.1066 15.3745 66.2227 16.4471C64.8017 18.1745 63.2681 19.7947 61.3955 21.0548C61.2667 21.1415 61.1523 21.2496 60.9415 21.4206C62.227 22.7737 63.477 24.0979 64.7388 25.412C65.1814 25.8719 65.6781 26.28 66.0983 26.7576C67.2079 28.0186 67.1907 29.2601 66.0592 30.4941C65.1877 31.4835 64.1209 32.2816 62.9261 32.8386C61.6979 33.3924 60.5208 34.0635 59.4349 34.6226ZM56.3528 21.9846C55.8592 21.6897 55.5316 21.4879 55.1985 21.2962C51.0967 18.9339 47.002 16.5598 42.8876 14.2197C41.437 13.3948 39.9157 12.6931 38.47 11.8601C37.6912 11.4112 37.1092 11.5588 36.4066 12.0231C32.1251 14.8566 27.82 17.6545 23.5183 20.4563C22.4285 21.1664 21.3224 21.8513 20.1357 22.6035C20.4232 22.7899 20.5797 22.9083 20.7514 22.9996C25.8889 25.7067 31.0428 28.383 36.155 31.1366C37.294 31.75 38.2489 31.9079 39.2644 31.0059C39.553 30.7939 39.8659 30.6169 40.1962 30.4787C44.9512 27.9851 49.7069 25.4922 54.4626 23.0005C55.0515 22.6918 55.6341 22.3713 56.3528 21.9846ZM39.3827 9.05521C45.9522 12.5648 52.0733 16.5178 58.6734 19.5701L62.8222 15.3768C62.6838 15.2295 62.5359 15.0914 62.3796 14.9633C58.4835 12.3423 54.6054 9.69346 50.6772 7.12179C49.0162 6.03433 47.2501 5.107 45.5287 4.11318C44.9929 3.80358 44.5372 3.81033 44.0543 4.31726C42.5454 5.89837 40.9895 7.4324 39.3827 9.05498V9.05521ZM17.4268 35.23C17.7115 38.2613 17.9718 40.9923 18.2206 43.7245C18.2264 43.9241 18.298 44.1163 18.4244 44.271C18.5509 44.4254 18.725 44.534 18.9195 44.5792C19.2596 44.6887 19.585 44.8422 19.9212 44.9678C24.8833 46.8238 29.9952 48.1803 35.1156 49.5066C35.4098 49.5574 35.7068 49.5879 36.005 49.5977V37.5018C35.2362 38.3456 34.6583 39.0573 33.9997 39.6856C33.3345 40.3691 32.5977 40.979 31.802 41.5048C30.7364 42.1503 29.5492 42.2677 28.4007 41.6178C25.3877 39.9134 22.3787 38.2016 19.3735 36.4824C18.7929 36.1504 18.2471 35.7607 17.4268 35.2297V35.23ZM56.9935 35.9289C56.4018 36.1935 56.1101 36.3084 55.8322 36.4502C52.8933 37.95 49.9382 39.4212 47.0288 40.975C46.0193 41.5141 45.1206 41.5218 44.247 40.8569C42.8226 39.7727 41.4372 38.6382 40.0366 37.523C39.7457 37.2912 39.4615 37.0513 39.1185 36.7694C39.348 41.1905 39.57 45.4661 39.7944 49.7994C40.0832 49.7235 40.3535 49.6706 40.6097 49.5816C42.2619 49.0099 43.9213 48.4564 45.5597 47.847C48.9479 46.5864 52.3247 45.2965 55.7045 44.0138C56.1511 43.8444 56.5665 43.6858 56.5946 43.0566C56.6971 40.7542 56.8479 38.4546 56.9935 35.9272V35.9289ZM13.8586 29.6168L30.5607 38.9434L35.4813 34.3543L18.1548 24.449L13.8586 29.6168ZM40.8634 33.7649C42.3241 34.8994 43.6995 35.9193 45.0155 37.0105C45.6806 37.5617 46.2285 37.657 47.0309 37.2295C51.9095 34.6296 56.8185 32.0862 61.7151 29.5198C62.0555 29.3416 62.3789 29.131 62.6845 28.9507L58.794 23.6732L40.8634 33.7649ZM30.4534 5.55077C24.9536 8.92872 20.1564 13.1721 15.097 16.6863L19.0107 20.7741L35.2586 9.7872L30.4534 5.55077Z" fill="#491F5A"/>
</svg>
