<svg width="69" height="57" viewBox="0 0 69 57" fill="none" xmlns="http://www.w3.org/2000/svg">
<g id="Group 104">
<path id="Ellipse 6" d="M53 34.5068C53 49.017 41.1355 57 26.5 57C11.8645 57 0 49.017 0 34.5068C0 19.9965 6.30014 3 20.9357 3C35.5712 3 53 19.9965 53 34.5068Z" fill="#FCF7FF"/>
<path id="Vector" d="M61.2711 35.5273C61.6048 38.3538 61.9207 40.9558 62.2125 43.5602C62.2623 44.0041 62.1872 44.4607 62.219 44.908C62.3304 46.4774 61.4571 47.3587 60.1152 47.872C56.8952 49.1041 53.6919 50.3888 50.43 51.5006C46.8575 52.718 43.2338 53.7893 39.6142 54.8631C38.987 55.0372 38.3252 55.0454 37.6937 54.8869C31.3667 53.246 25.123 51.3464 19.0976 48.7862C18.1416 48.4172 17.2153 47.9757 16.3267 47.4658C15.8399 47.1177 15.4562 46.6447 15.2162 46.0971C15.0146 45.6786 15.0284 45.1344 15.0274 44.6458C15.02 41.4825 15.0127 38.3187 15.0615 35.1559C15.0912 34.9168 15.0448 34.6743 14.9286 34.463C14.8124 34.252 14.6325 34.0827 14.4143 33.9793C13.6968 33.5781 13.0153 33.1159 12.377 32.5981C11.0724 31.4995 10.8794 30.2002 11.7977 28.763C12.1724 28.2243 12.5985 27.723 13.0701 27.2661C14.2891 25.9937 15.5282 24.7427 16.8001 23.4415C15.375 22.1667 14.0273 20.9642 12.6835 19.7575C12.3026 19.4439 11.9426 19.1059 11.6057 18.7456C10.6961 17.6828 10.8162 16.6329 11.9305 15.7708C12.5156 15.3182 13.1334 14.9065 13.7261 14.465C18.3071 11.0474 22.878 7.61668 27.4715 4.21595C28.3734 3.56931 29.309 2.97091 30.2746 2.42343C31.4327 1.74352 32.5256 1.85568 33.5689 2.74685C34.8509 3.84185 36.1738 4.88887 37.4861 5.94786C37.8344 6.229 38.2078 6.4782 38.6471 6.79751C39.2331 6.13416 39.7941 5.49219 40.3628 4.85718C41.4875 3.60139 42.6146 2.34747 43.7441 1.09537C44.8026 -0.079346 45.5168 -0.313007 46.8917 0.412756C49.3958 1.73488 51.9124 3.05684 54.2936 4.58111C58.6893 7.39509 62.992 10.3543 67.3311 13.2561C67.5703 13.4166 67.7986 13.5925 68.0146 13.7828C69.0743 14.7146 69.1934 15.691 68.2807 16.7964C66.8132 18.5766 65.2295 20.2463 63.2958 21.5449C63.1628 21.6342 63.0446 21.7457 62.8269 21.9219C64.1544 23.3163 65.4453 24.681 66.7482 26.0352C67.2053 26.5092 67.7182 26.9298 68.1522 27.4219C69.298 28.7215 69.2802 30.0009 68.1118 31.2726C67.2118 32.2922 66.1102 33.1147 64.8763 33.6888C63.6081 34.2594 62.3924 34.9511 61.2711 35.5273ZM58.0884 22.5031C57.5786 22.1991 57.2404 21.9912 56.8964 21.7936C52.6606 19.3592 48.4321 16.9125 44.1834 14.5009C42.6853 13.6508 41.1144 12.9277 39.6214 12.0692C38.8172 11.6066 38.2162 11.7587 37.4907 12.2372C33.0693 15.1573 28.6235 18.0407 24.1814 20.9281C23.056 21.6599 21.9137 22.3657 20.6882 23.1409C20.9851 23.333 21.1468 23.455 21.3241 23.5491C26.6294 26.3389 31.9516 29.097 37.2308 31.9347C38.407 32.5669 39.3931 32.7296 40.4417 31.8001C40.7398 31.5816 41.0629 31.3991 41.404 31.2568C46.3143 28.6869 51.2254 26.1178 56.1364 23.55C56.7446 23.2319 57.3462 22.9016 58.0884 22.5031ZM40.564 9.17862C47.3481 12.7954 53.6691 16.8693 60.4847 20.0148L64.7691 15.6934C64.6262 15.5416 64.4734 15.3993 64.312 15.2673C60.2886 12.5661 56.2839 9.83637 52.2273 7.18612C50.5121 6.06543 48.6883 5.10977 46.9107 4.08558C46.3574 3.76652 45.8868 3.77348 45.3881 4.29589C43.83 5.92532 42.2232 7.50622 40.564 9.17838V9.17862ZM17.8909 36.1532C18.1849 39.2771 18.4536 42.0916 18.7106 44.9072C18.7166 45.113 18.7905 45.3111 18.9211 45.4705C19.0516 45.6296 19.2314 45.7415 19.4323 45.7881C19.7835 45.9009 20.1196 46.0591 20.4667 46.1886C25.5909 48.1013 30.8698 49.4993 36.1574 50.866C36.4613 50.9184 36.768 50.9498 37.0759 50.9599V38.4945C36.282 39.364 35.6852 40.0975 35.0051 40.745C34.3182 41.4494 33.5573 42.0779 32.7356 42.6198C31.6352 43.285 30.4093 43.406 29.2233 42.7362C26.1118 40.9798 23.0045 39.2157 19.9011 37.4439C19.3016 37.1017 18.7379 36.7001 17.8909 36.1529V36.1532ZM58.75 36.8734C58.1389 37.1462 57.8377 37.2645 57.5507 37.4107C54.5159 38.9564 51.4642 40.4725 48.4598 42.0738C47.4174 42.6294 46.4892 42.6373 45.5871 41.9521C44.1162 40.8348 42.6856 39.6656 41.2392 38.5163C40.9388 38.2774 40.6453 38.0301 40.2911 37.7396C40.5281 42.2959 40.7574 46.7021 40.989 51.1678C41.2874 51.0896 41.5664 51.0351 41.831 50.9433C43.5372 50.3542 45.2508 49.7838 46.9427 49.1557C50.4416 47.8566 53.9287 46.5273 57.4189 45.2054C57.88 45.0309 58.309 44.8674 58.3381 44.2189C58.4439 41.8462 58.5996 39.4764 58.75 36.8718V36.8734ZM14.2061 30.3685L31.4538 39.9801L36.5351 35.2507L18.6427 25.0428L14.2061 30.3685ZM42.093 34.6433C43.6014 35.8125 45.0217 36.8636 46.3807 37.9881C47.0676 38.5562 47.6334 38.6543 48.4619 38.2138C53.5 35.5345 58.5693 32.9133 63.6259 30.2686C63.9773 30.0849 64.3112 29.8679 64.6269 29.6821L60.6093 24.2433L42.093 34.6433ZM31.3429 5.56709C25.6635 9.04826 20.7097 13.4213 15.4849 17.0429L19.5265 21.2556L36.3051 9.93298L31.3429 5.56709Z" fill="#491F5A"/>
</g>
</svg>
