<svg width="79" height="56" viewBox="0 0 79 56" fill="none" xmlns="http://www.w3.org/2000/svg">
<path d="M51.6209 33.5655C51.6209 47.8203 40.0652 55.6626 25.8105 55.6626C11.5557 55.6626 0 47.8203 0 33.5655C0 19.3108 6.13621 2.61365 20.3909 2.61365C34.6457 2.61365 51.6209 19.3108 51.6209 33.5655Z" fill="#FFF8CF"/>
<g clip-path="url(#clip0_2176_3673)">
<path d="M32.663 9.02795C36.5202 9.11079 39.3596 10.8308 41.0957 14.3324C42.0196 16.1956 42.8726 18.0949 43.799 19.9569C44.1752 20.7074 44.6087 21.4269 45.0956 22.1089C45.8327 23.1463 45.3663 24.6618 44.1436 24.9386C43.4046 25.0933 42.6571 25.2032 41.9051 25.2675C40.2227 25.4375 38.5375 25.58 36.8535 25.7336C36.8022 25.7438 36.7499 25.7475 36.6977 25.7447C35.6998 25.576 34.8367 25.9928 33.9301 26.322C32.5477 26.8091 31.0741 26.9721 29.6205 26.7986C27.851 26.6151 26.1985 26.1495 24.6757 25.2048C24.4515 25.0657 24.1329 25.0726 23.855 25.0338C22.4089 24.8329 21.0086 25.2103 19.591 25.3805C19.1244 25.4327 18.6548 25.4519 18.1856 25.4381C17.2516 25.4177 16.5899 24.4477 17.125 23.5835C18.3795 21.5576 19.091 19.2708 20.1507 17.1518C21.3915 14.6706 23.1343 12.6398 25.4608 11.1463C27.0568 10.1293 28.8523 9.47705 30.7226 9.23517C31.3664 9.14662 32.0159 9.09595 32.663 9.02795ZM23.8003 18.288C23.4189 20.5164 24.8563 23.0049 27.0238 23.8098C28.3735 24.3071 29.8098 24.5178 31.2434 24.429C33.5291 24.3024 35.2228 23.1452 36.4389 21.2358C36.8742 20.5394 37.1041 19.7314 37.1012 18.9071C34.6271 18.0726 32.4098 16.9765 31.3449 14.2159C29.4417 16.9246 26.6908 17.7596 23.8003 18.288Z" fill="#491F5A"/>
<path d="M35.3515 42.7524C31.9859 42.7524 28.6202 42.736 25.2548 42.7578C22.5444 42.7753 19.8344 42.8529 17.1243 42.8731C16.4211 42.8699 15.7192 42.813 15.0244 42.7031C13.416 42.4676 12.7704 41.5037 13.3036 39.9485C13.6693 38.9049 14.1473 37.9049 14.729 36.9672C17.178 32.9746 20.7392 30.3594 25.017 28.6973C27.1572 27.8467 29.4217 27.3614 31.7187 27.2609C34.6597 27.148 37.4868 27.5094 40.1093 28.9619C42.44 30.2528 44.321 32.044 45.8842 34.2074C47.0031 35.7563 47.7745 37.4905 48.5598 39.216C48.7436 39.6824 48.8567 40.1743 48.8954 40.675C49.0286 41.7609 48.4713 42.4705 47.3955 42.584C46.5934 42.6687 45.7854 42.734 44.9796 42.7385C41.7708 42.7557 38.5617 42.7455 35.3527 42.7455L35.3515 42.7524ZM15.0111 40.5613C15.0926 40.5971 15.1762 40.628 15.2613 40.6538C16.1918 40.8656 17.1205 40.7353 18.0585 40.6821C19.9567 40.5739 21.8598 40.525 23.7614 40.5151C30.0486 40.4821 36.3361 40.4843 42.6233 40.4557C43.7686 40.4506 44.9136 40.3653 46.0584 40.3095C46.1463 40.2916 46.2305 40.2588 46.3078 40.2128C46.3188 40.1145 46.3437 40.0559 46.3277 40.0128C45.2588 37.1228 43.7293 34.54 41.3786 32.5255C40.0121 31.3545 38.5047 30.4109 36.7424 29.9791C34.0933 29.3391 31.3358 29.315 28.6764 29.9085C23.8618 30.9439 19.847 33.3313 16.8584 37.3552C16.1247 38.3428 15.4404 39.3693 15.0111 40.5603V40.5613Z" fill="#491F5A"/>
</g>
<g clip-path="url(#clip1_2176_3673)">
<path d="M58.3413 35.5635C55.3937 35.4034 52.7676 34.8921 50.5771 33.033C48.9845 31.6812 48.0406 29.9311 47.6527 27.882C46.804 23.4047 49.2197 19.5203 52.8489 17.6108C55.3768 16.2806 58.0392 15.7662 60.8689 16.2121C63.2837 16.5924 65.05 17.9816 66.4804 19.9005C66.9647 20.5504 67.5332 21.1677 67.8702 21.8929C68.566 23.3926 69.1577 24.931 68.7562 26.679C68.3804 28.3137 67.9152 29.891 66.8685 31.227C65.0306 33.5727 62.7085 35.0624 59.7322 35.3937C59.2009 35.4525 58.6725 35.5229 58.3413 35.5635ZM50.231 26.9344C50.5502 29.3594 51.7279 31.0962 53.9301 31.9933C54.821 32.326 55.7477 32.5499 56.6906 32.6601C59.7357 33.0991 62.3494 32.2935 64.2858 29.7335C65.1572 28.6335 65.5817 27.2358 65.4719 25.8275C63.0077 25.3617 60.7782 24.5196 58.9718 22.686C56.6438 25.3831 53.5603 26.3694 50.2305 26.9344H50.231Z" fill="#491F5A"/>
<path d="M63.4465 53.7011C59.7324 53.7011 56.0181 53.6816 52.3043 53.7067C49.0985 53.7285 45.8937 53.8222 42.6874 53.8366C41.7977 53.8427 40.9098 53.7534 40.0385 53.5703C38.4096 53.2216 37.8843 52.2845 38.2941 50.6365C38.6195 49.3286 39.2844 48.1796 39.9848 47.0562C42.8298 42.487 46.9022 39.4963 51.8052 37.5799C54.4664 36.5173 57.2946 35.9535 60.1531 35.9155C64.294 35.884 68.1393 36.9053 71.4417 39.631C73.7909 41.5432 75.7172 43.9376 77.0954 46.6582C77.5022 47.4647 77.9378 48.2621 78.2668 49.1015C78.5583 49.8251 78.767 50.5805 78.8886 51.3527C79.0637 52.5545 78.4244 53.3568 77.2505 53.5012C76.4268 53.6102 75.5978 53.6709 74.7672 53.6829C70.9937 53.7018 67.2201 53.6912 63.4465 53.6912V53.7011ZM75.951 50.8377C75.9646 50.6786 75.9903 50.6123 75.9719 50.5625C74.7601 47.2904 73.0421 44.3559 70.3969 42.0623C68.8457 40.7175 67.1337 39.6436 65.135 39.1144C62.475 38.4341 59.7037 38.3334 57.0028 38.8189C50.3062 39.9438 44.9566 43.2585 41.3048 49.1853C40.9164 49.8159 40.607 50.4972 40.2402 51.1936C41.4588 51.5533 42.5682 51.41 43.695 51.3405C45.8856 51.2056 48.0836 51.1567 50.2793 51.1445C57.1723 51.1065 64.0657 51.1109 70.9587 51.0775C72.5008 51.0701 74.0426 50.9764 75.5843 50.9175C75.7085 50.9009 75.8311 50.8741 75.951 50.8371V50.8377Z" fill="#491F5A"/>
</g>
<defs>
<clipPath id="clip0_2176_3673">
<rect width="36" height="34" fill="white" transform="translate(13 9)"/>
</clipPath>
<clipPath id="clip1_2176_3673">
<rect width="41" height="38" fill="white" transform="translate(38 16)"/>
</clipPath>
</defs>
</svg>
