<svg width="79" height="60" viewBox="0 0 79 60" fill="none" xmlns="http://www.w3.org/2000/svg">
<path d="M36.5835 56.3182C24.2385 63.4456 11.669 57.3592 4.5416 45.0142C-2.58576 32.6693 -1.57194 18.7405 10.773 11.6131C23.118 4.48578 40.6462 1.45132 47.7736 13.7963C54.901 26.1412 48.9284 49.1908 36.5835 56.3182Z" fill="#FCF7FF"/>
<path d="M73.3425 46.5596C73.6237 46.576 73.9176 46.6022 74.212 46.6095C75.3666 46.6344 76.3005 46.8739 76.5175 48.2823C76.6248 48.9774 77.0776 49.6121 77.2845 50.3009C77.6337 51.4606 77.1709 52.3203 76.037 52.7095C75.7139 52.821 75.3759 52.8844 75.0343 52.8979C68.5096 53.1199 61.9842 53.3168 55.4597 53.5488C50.6832 53.7187 45.9082 53.936 41.1322 54.1249C38.5307 54.2277 35.9285 54.3152 33.3268 54.4096C30.3828 54.5161 27.4416 54.6503 24.4976 54.7164C23.1758 54.7574 21.8527 54.7099 20.5372 54.5745C18.8067 54.3809 18.2668 53.6848 18.2616 51.9468C18.2601 51.5626 18.2688 51.1784 18.2683 50.7939C18.2656 49.3456 18.6864 48.8354 20.1714 48.6857C20.9698 48.6051 21.7809 48.6713 22.7222 48.6713C22.8801 41.4674 23.0348 34.4096 23.1937 27.1456C22.6449 27.5349 22.1846 27.8777 21.708 28.196C19.9254 29.3881 18.3843 28.67 18.1954 26.5471C18.1011 25.4845 18.1535 24.4035 17.9929 23.3536C17.6685 21.2277 18.6415 19.7859 20.2405 18.5826C23.5148 16.1193 26.7273 13.5723 30.0455 11.1675C35.3067 7.37204 40.7635 3.85506 46.3932 0.631379C47.4161 0.0428284 48.0695 0.0491797 49.0336 0.611035C54.602 3.85616 60.1252 7.16416 65.4591 10.7935C69.0555 13.2408 72.7876 15.4907 76.4833 17.7897C77.4287 18.3778 78.0337 19.0122 77.9494 20.2405C77.8857 21.1636 78.0911 22.1069 78.1806 23.0408C78.2707 23.9784 78.3593 24.9027 77.8765 25.7902C77.2837 26.8794 76.5213 27.2936 75.3464 26.8987C74.4767 26.6065 73.6673 26.1345 72.8814 25.7662C73.0339 32.6357 73.1868 39.5301 73.3425 46.5596ZM70.258 46.8091C70.258 46.0147 70.2633 45.3406 70.258 44.6669C70.1969 37.9671 70.1223 31.2675 70.0899 24.5674C70.0866 23.9045 69.8172 23.6028 69.3055 23.272C65.2944 20.6788 61.3058 18.0511 57.3084 15.438C54.2457 13.4347 51.1784 11.4315 48.1065 9.42827C47.2959 10.0328 46.5596 10.6103 45.7944 11.1497C39.3409 15.6946 32.8809 20.2303 26.4144 24.7567C25.6033 25.3221 25.2121 25.9004 25.2418 26.9398C25.4187 33.1272 25.5213 39.3146 25.6562 45.502C25.6764 46.4251 25.7371 47.3495 25.7847 48.3961L28.3028 48.2194C28.3028 47.1486 28.2951 46.2562 28.3043 45.364C28.363 39.6055 28.1 33.8402 28.6806 28.0922C28.8203 26.7085 28.9445 26.5319 30.3127 26.246C30.6461 26.1764 30.9864 26.135 31.3254 26.0983C33.2333 25.892 35.1384 25.6457 37.051 25.4975C41.4311 25.1579 45.8116 24.8072 50.1979 24.5744C54.3734 24.3528 58.5559 24.2953 62.7356 24.1254C65.133 24.0283 66.2457 24.8943 66.4129 27.2761C66.6459 30.5944 66.8455 33.9178 66.958 37.2426C67.0501 39.9715 66.9894 42.7064 67.0079 45.4369C67.0114 45.9274 67.071 46.4174 67.1105 46.9942L70.258 46.8091ZM63.8479 27.0329C59.2323 26.5608 34.4303 27.6214 30.7107 28.4647C30.6892 28.8122 30.6428 29.1852 30.6473 29.5572C30.72 35.4881 30.7985 41.419 30.8828 47.3497C30.9165 47.6197 30.975 47.8856 31.0575 48.1448L34.5735 47.9335C34.5735 45.8433 34.5985 43.9232 34.5636 42.0041C34.5466 41.0376 35.0094 40.477 35.8736 40.2078C36.3229 40.0778 36.7817 39.984 37.2458 39.9268C37.9958 39.8196 38.75 39.744 39.522 39.6524C39.522 39.2585 39.5132 38.968 39.5234 38.6794C39.5843 36.9329 39.5998 35.1848 39.7328 33.4446C39.8056 32.4927 40.1594 32.1332 41.1117 32.0626C43.9162 31.8543 46.7243 31.6969 49.5358 31.5903C50.5155 31.5542 50.9102 31.9731 51.1063 32.9314C51.2258 33.5152 51.2907 34.1109 51.3668 34.7027C51.533 35.9964 51.6911 37.2907 51.8521 38.5893C52.0611 38.612 52.2717 38.6203 52.482 38.6143C54.683 38.3416 55.3554 39.1247 55.7322 41.1019C56.1201 43.1385 56.4365 45.1889 56.8125 47.3994L64.1692 47.1187C64.0602 40.331 63.9546 33.7262 63.8479 27.0329ZM47.9817 2.74937C47.5344 3.03977 47.1858 3.28398 46.8206 3.50053C38.3646 8.51531 30.4113 14.2626 22.5039 20.084C21.3353 20.9445 20.8919 21.8348 21.1227 23.18C21.2085 23.679 21.2682 24.1847 21.3637 24.8538C22.5453 24.0026 23.6091 23.2321 24.677 22.4671C31.6461 17.4678 38.6166 12.4697 45.5886 7.47278C45.8997 7.24974 46.2348 7.05905 46.5643 6.8627C46.8508 6.67149 47.1913 6.57846 47.5354 6.59749C47.8792 6.61651 48.2075 6.74667 48.471 6.96831C49.1236 7.44833 49.78 7.92786 50.4669 8.35623C58.2847 13.231 65.8837 18.4564 73.9053 23.0046C74.2579 23.2042 74.6216 23.3843 75.075 23.6236C75.1623 22.7636 75.1832 22.0767 75.3115 21.4118C75.4806 20.5343 75.1593 20.0111 74.4163 19.5296C68.4011 15.6303 62.4317 11.6592 56.4005 7.7844C53.6766 6.03397 50.8436 4.45364 47.9817 2.74937ZM20.2328 52.5229C20.9449 52.6244 21.6623 52.6851 22.3814 52.7043C26.4296 52.5718 30.4766 52.4009 34.5244 52.25C37.763 52.1295 41.0029 52.0332 44.2411 51.9007C47.6067 51.7627 50.9699 51.5544 54.3362 51.4478C59.9189 51.2712 65.5115 51.3356 71.0714 50.6722C71.9598 50.5661 72.8547 50.5137 73.7429 50.4065C74.096 50.3636 74.5912 50.4217 74.5785 49.8521C74.564 49.2501 74.0952 49.393 73.7252 49.4048C73.6401 49.4075 73.5553 49.4232 73.4702 49.4267C70.5716 49.5395 67.6741 49.6902 64.7745 49.756C57.7361 49.9162 50.6962 50.0225 43.6578 50.1772C36.0233 50.3451 28.3889 50.5432 20.7545 50.7301C20.5511 50.7351 20.348 50.762 20.0639 50.7852C20.1195 51.3523 20.1674 51.8458 20.2328 52.5229ZM43.308 47.713V41.5203C41.0626 41.6401 38.9169 41.5203 36.7763 41.9844C37.0141 44.0053 37.2361 45.8929 37.4499 47.713H43.308ZM53.0908 47.3791C52.9029 45.3149 52.725 43.3588 52.5491 41.4233H46.2223C46.5092 43.544 46.7792 45.5381 47.0603 47.6149L53.0908 47.3791ZM48.8936 33.5723C46.5546 33.5294 44.2588 33.4323 41.837 33.7375C42.0683 35.6907 42.2861 37.525 42.5036 39.3687L48.8936 38.7245V33.5723Z" fill="#491F5A"/>
</svg>
