<svg width="74" height="57" viewBox="0 0 74 57" fill="none" xmlns="http://www.w3.org/2000/svg">
<path d="M59.4389 53.8922C47.094 61.0196 34.5244 54.9332 27.3971 42.5882C20.2697 30.2433 21.2835 16.3145 33.6285 9.18715C45.9734 2.05978 63.5017 -0.974676 70.6291 11.3703C77.7564 23.7152 71.7839 46.7648 59.4389 53.8922Z" fill="#FDFCFD"/>
<path d="M54.8162 32.7161C53.5155 32.5167 53.173 31.9919 53.0562 30.6962C52.901 28.9767 52.6323 27.2661 52.4124 25.5535C52.3455 25.1802 52.3004 24.8033 52.2774 24.4247C52.2707 23.7584 52.7613 22.9527 53.3501 22.8715C54.6854 22.6877 56.0785 22.4691 57.1152 23.682C58.1558 24.8991 59.1733 26.1363 60.1818 27.3803C60.6961 27.9957 61.1768 28.6383 61.622 29.3052C62.6636 30.9174 61.7856 32.7282 59.8672 32.9173C58.181 32.9535 56.4943 32.8864 54.8162 32.7161ZM54.868 24.8171L54.5855 24.979C54.9986 26.7543 55.4114 28.5296 55.844 30.3851L58.8754 30.2441C57.4767 28.2339 56.3625 26.3847 54.868 24.8171Z" fill="#491F5A"/>
<path d="M73.0319 39.5877C72.6635 36.7338 73.9697 34.1254 71.9012 32.0692C69.5448 29.999 66.9379 27.2063 64.7374 24.822C62.2635 22.1516 59.7952 19.4726 57.021 17.055C54.9878 15.2656 51.8538 16.935 49.3606 16.8575C46.6587 7.02577 45.5356 6.76718 35.6242 6.84146C26.3509 6.92067 18.2943 7.89491 9.35412 8.66756C1.23895 9.59495 0.056917 8.88974 0.327135 17.9081C0.358475 26.6313 0.354524 34.1303 0.565021 42.6011C0.538863 49.203 8.3384 47.6286 12.8635 48.2231C13.5673 54.4985 22.7426 54.4929 24.5853 49.0192C34.6983 48.2369 44.6233 48.7028 54.7201 47.0311C55.8552 53.0184 65.1882 53.0278 66.0169 46.8789C73.1997 46.4095 73.2605 47.2932 73.0319 39.5877ZM3.14403 36.3673C3.07518 29.0583 2.51428 21.3738 2.78377 13.9894C2.91826 12.2903 3.06534 12.1281 4.77449 11.8424C8.13802 11.2575 10.7262 11.1285 13.9362 10.8077C23.5989 10.0427 32.3456 8.68319 42.4386 9.63599C47.7825 10.2282 48.2894 31.9241 48.4811 35.7013C32.9862 35.666 18.6079 37.1432 3.33975 37.7601C3.1888 37.312 3.12244 36.8396 3.14403 36.3673ZM21.0845 49.4113C17.4419 53.2346 12.311 47.6908 16.2334 45.1584C16.9577 44.9886 17.7918 44.9286 18.5918 44.8163C20.763 45.1372 23.0962 47.3658 21.0845 49.4113ZM47.9829 44.7682C44.4215 45.2206 29.2261 45.9034 24.7632 46.2242C22.9388 40.4319 15.0578 41.1858 13.3751 45.7526C10.7358 45.5456 8.08003 45.6275 5.46867 45.1998C2.54587 44.9284 3.17022 41.7916 3.30545 39.677C18.6735 39.3851 33.1293 38.1317 48.6472 38.2704C48.4256 39.909 50.2762 44.2836 47.9836 44.7682H47.9829ZM62.4932 47.4763C60.3265 50.3964 55.244 47.1397 58.2181 43.9968C58.8266 43.3858 60.4926 43.619 61.1594 43.9475C62.1808 44.7394 63.1597 46.3498 62.4932 47.4763ZM65.6174 44.5274C64.4642 41.3642 59.7037 39.8547 57.1557 41.918C56.7745 42.2176 55.756 42.9544 55.2803 44.1883C55.0137 44.7265 51.5762 45.2277 51.6238 43.9045C51.3097 35.3415 50.9138 27.2125 49.9781 18.8789C51.7891 18.9505 54.7203 18.1698 55.9994 19.7105C57.7845 21.5388 59.6965 23.5498 62.0115 26.0425C64.5007 29.0314 67.7537 31.669 69.8145 34.9511C70.0144 37.3485 70.1442 41.2517 70.3187 43.7959L65.6174 44.5274Z" fill="#491F5A"/>
</svg>
